<?xml version="1.0" standalone="no"?>
<!DOCTYPE svg PUBLIC "-//W3C//DTD SVG 20010904//EN"
 "http://www.w3.org/TR/2001/REC-SVG-20010904/DTD/svg10.dtd">
<svg version="1.0" xmlns="http://www.w3.org/2000/svg"
 width="700.000000pt" height="700.000000pt" viewBox="0 0 700.000000 700.000000"
 preserveAspectRatio="xMidYMid meet">
<metadata>
Created by potrace 1.11, written by Peter Selinger 2001-2013
</metadata>
<g transform="translate(0.000000,700.000000) scale(0.100000,-0.100000)"
fill="#000000" stroke="none">
<path d="M270 6440 c0 -9 32 -72 210 -415 37 -71 118 -229 180 -350 62 -121
136 -265 165 -320 29 -55 106 -203 171 -330 65 -126 158 -306 206 -400 49 -93
112 -217 141 -275 28 -58 54 -107 57 -110 3 -3 36 -66 73 -140 38 -74 112
-218 164 -320 143 -277 247 -478 333 -645 43 -82 119 -231 170 -330 104 -201
219 -425 320 -620 86 -166 221 -428 345 -670 53 -104 130 -253 170 -330 40
-77 112 -216 160 -310 48 -93 114 -219 145 -280 32 -60 79 -152 105 -204 l47
-94 22 39 c13 21 71 131 131 244 60 113 116 219 125 235 15 28 47 86 130 240
15 28 48 91 75 140 26 50 60 113 75 140 29 52 80 148 148 275 22 41 53 100 69
130 17 30 65 120 108 200 43 80 90 168 105 195 15 28 46 86 70 130 23 44 57
107 75 140 18 33 49 92 70 130 43 80 95 177 135 250 15 28 53 100 85 160 32
61 61 115 65 120 4 6 36 64 70 130 34 66 66 125 70 130 4 6 33 60 65 120 31
61 87 164 122 230 64 116 87 161 188 350 27 50 82 150 122 224 40 74 73 135
73 137 0 2 24 48 54 101 73 134 132 243 241 448 26 50 60 113 75 140 24 43 96
177 293 545 22 41 50 93 62 115 12 22 41 75 64 117 22 43 59 112 82 155 23 43
56 105 74 138 47 89 104 193 137 253 l29 52 -3235 0 c-2076 0 -3236 -3 -3236
-10z"/>
</g>
</svg>
